<svg width="25" height="25" viewBox="0 0 25 25" fill="none" xmlns="http://www.w3.org/2000/svg">
<path d="M10.6258 11.622V1.937C10.6258 0.868206 11.494 0 12.5628 0C13.6316 0 14.4998 0.868206 14.4998 1.937V11.622C14.4998 12.6908 13.6316 13.559 12.5628 13.559C11.494 13.559 10.6258 12.6908 10.6258 11.622ZM20.2408 2.84018C19.6133 2.34333 18.6978 2.45237 18.201 3.0809C17.7041 3.71045 17.8121 4.62391 18.4417 5.1218C20.7459 6.93947 22.0667 9.66136 22.0667 12.591C22.0667 17.8311 17.8029 22.095 12.5638 22.095C7.32371 22.095 3.05983 17.8311 3.05983 12.591C3.05983 9.66239 4.37962 6.94153 6.68181 5.12488C7.31136 4.62803 7.41937 3.71456 6.92252 3.08398C6.42567 2.45443 5.51323 2.34745 4.88162 2.84327C1.87685 5.21438 0.153809 8.76744 0.153809 12.591C0.153809 19.4338 5.72102 25 12.5628 25C19.4045 25 24.9717 19.4328 24.9717 12.591C24.9717 8.76538 23.2466 5.21232 20.2408 2.84018Z" fill="white"/>
</svg>
